<?xml version="1.0" encoding="UTF-8"?>
<svg width="20px" height="20px" viewBox="0 0 20 20" version="1.1" xmlns="http://www.w3.org/2000/svg" xmlns:xlink="http://www.w3.org/1999/xlink">
    <title>Shape</title>
    <g id="交易中心" stroke="none" stroke-width="1" fill="none" fill-rule="evenodd">
        <g id="交易中心/提现管理" transform="translate(-1314.000000, -438.000000)" fill="#DEDEDE">
            <g id="Group-12" transform="translate(208.000000, 92.000000)">
                <g id="Group-8" transform="translate(0.000000, 200.000000)">
                    <g id="Group-5" transform="translate(24.000000, 72.000000)">
                        <g id="Add-products备份-4" transform="translate(1082.000000, 74.000000)">
                            <g id="edit-icon/gray">
                                <g id="edit-icon/gray-copy-9" transform="translate(1.000000, 4.000000)">
                                    <path d="M9.00063377,0 C13.4774601,0 17.2038903,2.36678544 17.9999937,5.49447282 C17.2103309,8.62763461 13.4808979,11 8.99940086,11 C4.52078026,11 0.793258637,8.63067903 -2.35413716e-05,5.50050186 C0.792588338,2.36982824 4.52093058,0 9.00063377,0 Z M9.00001604,1.375 C6.76322397,1.375 4.94994572,3.22182541 4.94994572,5.5 C4.94994572,7.77817459 6.76322397,9.625 9.00001604,9.625 C11.2368081,9.625 13.0500864,7.77817459 13.0500864,5.5 C13.0500864,3.22182541 11.2368081,1.375 9.00001604,1.375 Z M9.00001604,2.75 C10.4912108,2.75 11.7000629,3.98121694 11.7000629,5.5 C11.7000629,7.01878306 10.4912108,8.25 9.00001604,8.25 C7.50882132,8.25 6.29996916,7.01878306 6.29996916,5.5 C6.29996916,3.98121694 7.50882132,2.75 9.00001604,2.75 Z" id="Combined-Shape"></path>
                                </g>
                            </g>
                        </g>
                    </g>
                </g>
            </g>
        </g>
    </g>
</svg>