<?xml version="1.0" encoding="UTF-8"?>
<svg width="20px" height="20px" viewBox="0 0 20 20" version="1.1" xmlns="http://www.w3.org/2000/svg" xmlns:xlink="http://www.w3.org/1999/xlink">
    <title>Add products</title>
    <g id="交易中心" stroke="none" stroke-width="1" fill="none" fill-rule="evenodd">
        <g id="交易中心/售后管理" transform="translate(-1341.000000, -574.000000)">
            <g id="编组" transform="translate(208.000000, 92.000000)">
                <g id="Group-8" transform="translate(0.000000, 264.000000)">
                    <g id="Group-5" transform="translate(24.000000, 72.000000)">
                        <g id="Group-3备份" transform="translate(0.000000, 120.000000)">
                            <g id="Group-17" transform="translate(12.000000, 18.000000)">
                                <g id="编组-4" transform="translate(1061.000000, 8.000000)">
                                    <g id="Add-products备份-4" transform="translate(36.000000, 0.000000)">
                                        <g id="Add-products">
                                            <g id="编组" transform="translate(1.000000, 1.000000)">
                                                <circle id="椭圆形" fill="#BCBCBC" cx="9" cy="9" r="9"></circle>
                                                <path d="M10.767767,5.30330086 L13.6966991,8.23223305 C13.8833458,8.41887973 13.9838479,8.65904982 13.9982053,8.90333709 L13.9994576,8.96675029 C13.9998183,8.97778921 14,8.98887338 14,9 L13.998,9.033 L13.9982053,9.09666291 C13.9862408,9.30023564 13.9144536,9.50094921 13.7828438,9.67021206 L13.6966991,9.76776695 L10.767767,12.6966991 C10.3633658,13.1011003 9.707702,13.1011003 9.30330086,12.6966991 C8.93000749,12.3234058 8.90129262,11.7360188 9.21715624,11.3297879 L9.30330086,11.232233 L10.535,10 L5,10 C4.44771525,10 4,9.55228475 4,9 C4,8.44771525 4.44771525,8 5,8 L10.535,8 L9.30330086,6.76776695 C8.89889971,6.36336581 8.89889971,5.707702 9.30330086,5.30330086 C9.707702,4.89889971 10.3633658,4.89889971 10.767767,5.30330086 Z" id="形状结合" fill="#FFFFFF"></path>
                                            </g>
                                        </g>
                                    </g>
                                </g>
                            </g>
                        </g>
                    </g>
                </g>
            </g>
        </g>
    </g>
</svg>