<?xml version="1.0" encoding="UTF-8"?>
<svg width="20px" height="20px" viewBox="0 0 20 20" version="1.1" xmlns="http://www.w3.org/2000/svg" xmlns:xlink="http://www.w3.org/1999/xlink">
    <title>delete icon</title>
    <g id="平台成员管理" stroke="none" stroke-width="1" fill="none" fill-rule="evenodd">
        <g id="平台成员管理/系统成员-添加成员（失败）" transform="translate(-1344.000000, -438.000000)">
            <g id="Group-12" transform="translate(208.000000, 92.000000)">
                <g id="Group-8" transform="translate(0.000000, 200.000000)">
                    <g id="Group-5" transform="translate(24.000000, 72.000000)">
                        <g id="Group" transform="translate(0.000000, 48.000000)">
                            <g id="编组-6" transform="translate(1004.000000, 26.000000)">
                                <g id="edit-icon/gray备份" transform="translate(108.000000, 0.000000)">
                                    <g id="delete-icon">
                                        <circle id="椭圆形" fill="#FFB73C" cx="10" cy="10" r="8"></circle>
                                        <path d="M7.62674597,8.6650971 L8.53971989,9.57764445 L6.35376706,11.7627958 C6.26927071,11.8472611 6.26927071,11.9849764 6.35376706,12.0694418 L7.93169055,13.6466949 C8.01618691,13.7311373 8.1539527,13.7311373 8.23844906,13.6466949 L10.42431,11.4616354 L11.3373069,12.3742746 L9.15130817,14.5593111 C8.85749965,14.8531496 8.46984967,15 8.08417433,15 C7.69840714,15 7.31266292,14.8531496 7.01873959,14.5593111 L5.44088498,12.9801759 C4.85303834,12.3925677 4.85303834,11.4358826 5.44088498,10.8501795 L7.62674597,8.6650971 Z M11.8074396,8.19323405 C12.0591147,8.4447251 12.0591147,8.85419854 11.8074396,9.1057814 L9.10727593,11.8050239 C8.98055436,11.9317219 8.81525837,11.9941069 8.64987053,11.9941069 C8.48455158,11.9941069 8.31925558,11.9317219 8.19432497,11.8050239 C7.94274167,11.553441 7.94274167,11.1439676 8.19432497,10.8923847 L10.8945575,8.19323405 C11.1462327,7.94165118 11.5558563,7.94165118 11.8074396,8.19323405 Z M12.9794293,5.44072333 L14.5591667,7.01799939 C15.1469444,7.60560754 15.1469444,8.56226969 14.5591667,9.14799573 L12.3750967,11.3349603 L11.4621227,10.4223211 L13.6480067,8.23726162 C13.7325719,8.15279625 13.7325719,8.01508097 13.6480067,7.9306156 L12.0683611,6.35336249 C11.9838648,6.26889712 11.846099,6.26889712 11.7615108,6.35336249 L9.57564978,8.53842199 L8.6627677,7.62578283 L10.8486516,5.44072333 C11.4364753,4.85309222 12.3935113,4.85309222 12.9794293,5.44072333 Z" id="形状结合" fill="#FFFFFF"></path>
                                    </g>
                                </g>
                            </g>
                        </g>
                    </g>
                </g>
            </g>
        </g>
    </g>
</svg>