<?xml version="1.0" encoding="UTF-8"?>
<svg width="24px" height="24px" viewBox="0 0 24 24" version="1.1" xmlns="http://www.w3.org/2000/svg" xmlns:xlink="http://www.w3.org/1999/xlink">
    <title>Add products</title>
    <g id="用户管理" stroke="none" stroke-width="1" fill="none" fill-rule="evenodd">
        <g id="用户管理/车辆管理/车辆类型" transform="translate(-1165.000000, -308.000000)" fill="#FFFFFF">
            <g id="编组-6" transform="translate(208.000000, 92.000000)">
                <g id="编组" transform="translate(941.000000, 208.000000)">
                    <g id="Group-6" transform="translate(0.000000, 4.000000)">
                        <g id="Add-products备份-3" transform="translate(16.000000, 4.000000)">
                            <g id="Add-products">
                                <path d="M5,18 L5,16.7704593 C5,16.3449464 5.3449464,16 5.77045934,16 C6.19597229,16 6.54091868,16.3449464 6.54091868,16.7704593 L6.54091868,17.5 L6.54091868,17.5 L17.4591501,17.5 L17.4591501,16.7704249 C17.4591501,16.344931 17.8040811,16 18.2295751,16 C18.655069,16 19,16.344931 19,16.7704249 L19,18 C19,18.5522847 18.5522847,19 18,19 L6,19 C5.44771525,19 5,18.5522847 5,18 Z M6.54091868,9.68128989 L10.1949469,9.72500577 L10.1949469,5 L13.8490611,5 L13.8490611,9.63748857 L17.5031582,9.63748857 L12.0880677,15.3250126 L6.54091868,9.68128989 Z" id="导出"></path>
                            </g>
                        </g>
                    </g>
                </g>
            </g>
        </g>
    </g>
</svg>