<?xml version="1.0" encoding="UTF-8"?>
<svg width="311px" height="46px" viewBox="0 0 311 46" version="1.1" xmlns="http://www.w3.org/2000/svg" xmlns:xlink="http://www.w3.org/1999/xlink">
    <title>编组 12</title>
    <g id="Page-1" stroke="none" stroke-width="1" fill="none" fill-rule="evenodd">
        <g id="通用活动页面/提示" transform="translate(-32.000000, -76.000000)">
            <g id="编组-13" transform="translate(32.000000, 76.000000)">
                <g id="编组-12" transform="translate(75.000000, 3.000000)">
                    <text id="①-点击右上角-…" font-family="FZY3JW--GB1-0, FZZhunYuan-M02S" font-size="15" font-weight="normal" letter-spacing="0.576923077" fill="#BBBBBB">
                        <tspan x="19" y="14">① 点击右上角  …</tspan>
                    </text>
                    <text id="②-选择在浏览器中打开" font-family="FZY3JW--GB1-0, FZZhunYuan-M02S" font-size="15" font-weight="normal" letter-spacing="0.576923077" fill="#BBBBBB">
                        <tspan x="0" y="36">② 选择在浏览器中打开</tspan>
                    </text>
                    <path id="路径-7" d="M228.501567,-2.15337673 L229.112637,-0.968315016 L234.370959,9.22926677 L233.037764,9.9167205 L229.09,2.261 L228.825035,9.44893795 C228.131415,13.7817865 226.677042,17.9766333 224.271161,21.8996198 C222.210776,25.2592484 219.083893,26.958377 215.832155,27.0952387 L215.649,27.1 L215.621166,27.1600512 C214.393569,29.6755974 212.260779,32.2436614 209.200704,34.6871359 L208.843502,34.9685123 C206.262341,36.9744885 202.184828,38.2103324 196.604596,38.712374 L196.059882,38.7586691 L195.940118,37.263458 C201.535597,36.8152655 205.532241,35.6421693 207.923047,33.7841297 C210.727266,31.6048019 212.712893,29.3562585 213.925854,27.1784511 L214.017,27.009 L213.928069,26.9985952 C212.839839,26.8429377 211.758081,26.5158173 210.717669,26.0208722 L210.458448,25.8936417 C205.725981,23.4987764 204.629949,18.828748 209.253653,15.9300482 C212.198135,14.0840885 215.804455,16.247399 216.671234,20.2067828 C217.031314,21.8516016 216.919341,23.615408 216.326694,25.4290862 L216.283,25.557 L216.461226,25.5381074 C218.903557,25.2337701 221.204045,23.8685951 222.827018,21.3771813 L222.992473,21.1154286 C225.180291,17.548011 226.545381,13.7412974 227.23635,9.882369 L227.334958,9.3031615 L227.592,2.21 L223.101679,9.5558313 L221.82187,8.7734705 L227.806135,-1.01576855 L228.501567,-2.15337673 Z M210.050407,17.2009468 C206.566541,19.3850572 207.327688,22.6281916 211.135738,24.5552555 C212.278364,25.1334813 213.478334,25.47551 214.675381,25.5739835 L214.685,25.574 L214.691417,25.5605453 C215.348103,23.8713721 215.527726,22.2484599 215.253074,20.7612477 L215.205936,20.5275625 C214.540857,17.4895329 212.010879,15.971884 210.050407,17.2009468 Z" fill="#979797" fill-rule="nonzero"></path>
                </g>
            </g>
        </g>
    </g>
</svg>